<svg xmlns="http://www.w3.org/2000/svg" width="50" height="50" viewBox="0 0 74 36" fill="none">
  <g clip-path="url(#clip0_3172_7306)">
    <path d="M69.5734 9.28256C70.1473 9.28256 70.7929 9.42604 71.5102 9.7847L72.4428 7.48923C71.3668 6.91536 70.2908 6.62842 69.143 6.62842C66.2737 6.62842 64.2651 8.35003 64.2651 11.4346V12.0084H62.3284V14.4474H64.2651V24.2031H67.2062V14.4474H71.0081V12.0084H67.2062V11.5063C67.2062 9.9999 68.067 9.28256 69.5734 9.28256Z" fill="#222222"/>
    <path d="M60.6068 11.9367H57.6657V24.1314H60.6068V11.9367Z" fill="#222222"/>
    <path d="M59.1721 10.5021C60.2481 10.5021 61.0371 9.71301 61.0371 8.63701C61.0371 7.56101 60.2481 6.77194 59.1721 6.77194C58.0961 6.77194 57.307 7.56101 57.307 8.63701C57.307 9.71301 58.0961 10.5021 59.1721 10.5021Z" fill="#222222"/>
    <path d="M54.653 7.0588H51.7119V24.1314H54.653V7.0588Z" fill="#222222"/>
    <path d="M46.1167 11.8649V13.1561C44.969 12.2236 43.7495 11.7215 42.1714 11.7215C38.513 11.7215 35.7871 14.3756 35.7871 18.1057C35.7871 21.7641 38.3695 24.49 42.1714 24.49C43.6778 24.49 44.969 23.9879 46.1167 22.9836V24.2031H48.9143V11.9367H46.1167V11.8649ZM42.3865 21.9076C40.0193 21.9076 38.513 20.186 38.513 18.034C38.513 15.882 40.0193 14.1604 42.3865 14.1604C44.682 14.1604 46.1884 15.882 46.1884 18.034C46.2602 20.186 44.682 21.9076 42.3865 21.9076Z" fill="#222222"/>
  </g>
  <g clip-path="url(#clip1_3172_7306)">
    <path d="M20.3645 9.74874H15.7735L9.60447 24.5975H13.5498L18.069 13.1202L22.5165 24.5975H26.4618L20.3645 9.74874Z" fill="#00AF66"/>
    <path d="M28.1834 28.3277C27.0357 29.1885 25.7445 29.8341 24.3098 30.4079C16.8496 33.349 8.52849 30.2645 5.65916 23.3063C2.78982 16.2765 6.37649 8.02712 13.8368 5.08605C15.3432 4.51218 16.8496 4.15352 18.356 4.01005L16.9213 0.495117C15.2714 0.638584 13.6216 1.06897 12.0434 1.71457C2.86155 5.37297 -1.51417 15.7743 2.21596 24.741C5.87437 33.7077 16.204 37.7965 25.3859 34.2098C26.8923 33.6359 28.3986 32.8469 29.6181 31.9861L28.1834 28.3277Z" fill="#00AF66"/>
  </g>
  <defs>
    <clipPath id="clip0_3172_7306">
      <rect width="38" height="19" fill="white" transform="translate(35 6)"/>
    </clipPath>
    <clipPath id="clip1_3172_7306">
      <rect width="30" height="36" fill="white"/>
    </clipPath>
  </defs>
</svg>
