<svg xmlns="http://www.w3.org/2000/svg" viewBox="0 0 64 64" width="50" height="50" fill="none">
  <path d="M28 21a5 5 0 0 0 0 10h3V21zM36 33h-3v10h3a5 5 0 0 0 0-10z" style="fill:#E6BE00"/>
  <path d="M32 1a31 31 0 1 0 31 31A31.036 31.036 0 0 0 32 1zm0 58a27 27 0 1 1 27-27 27.03 27.03 0 0 1-27 27z" style="fill:#E6BE00"/>
  <path d="M32 7a25 25 0 1 0 25 25A25.028 25.028 0 0 0 32 7zm4 38h-3v2a1 1 0 0 1-2 0v-2h-6a1 1 0 0 1 0-2h6V33h-3a7 7 0 0 1 0-14h3v-2a1 1 0 0 1 2 0v2h6a1 1 0 0 1 0 2h-6v10h3a7 7 0 0 1 0 14z" style="fill:#E6BE00"/>
</svg>
