<svg width="50" height="50" viewBox="0 0 50 50" fill="#004fc7" xmlns="http://www.w3.org/2000/svg">
  <path d="M20.0336 -3.8147e-06C12.6088 -3.8147e-06 6.03506 3.60532 2 9.14392L6.08724
  12.0586C9.207 7.77465 14.2908 4.98709 20.0336 4.98709C28.7405 4.98709 35.9329 11.3975
  37.0615 19.7121H22.7253L24.4585 24.2879C24.6803 24.8599 24.9026 25.4759 24.9026
  26.048C24.9026 27.2361 24.1027 27.6319 22.7253 27.6319H18.3259V16.3681H26.3247L28.058
  11.7919H13.3484V32.2076H23.214C27.1246 32.2076 29.9247 30.4921 29.9247 26.9278C29.9247
  26.1185 29.7019 25.0676 29.4776 24.2879H37.0615C35.9329 32.6025 28.7405 39.0129 20.0336
  39.0129C14.2908 39.0129 9.207 36.2253 6.08724 31.9414L2 34.8556C6.03506 40.3947 12.6088
  44 20.0336 44C32.3053 44 42.2537 34.1499 42.2537 21.9997C42.2537 9.84956 32.3053 -3.8147e-06
  20.0336 -3.8147e-06Z" fill="inherit">
  </path>
</svg>
